<svg version="1.1" xmlns="http://www.w3.org/2000/svg" xmlns:xlink="http://www.w3.org/1999/xlink" width="470.46866" height="226.28628" viewBox="0,0,470.46866,226.28628"><g transform="translate(-4.76567,-66.85686)"><g data-paper-data="{&quot;isPaintingLayer&quot;:true}" fill-rule="nonzero" stroke="#000000" stroke-width="0" stroke-linecap="butt" stroke-linejoin="miter" stroke-miterlimit="10" stroke-dasharray="" stroke-dashoffset="0" style="mix-blend-mode: normal"><path d="M16.04848,258.98238c-8.408,-1.60359 -12.46465,-7.12513 -10.98242,-15.60248c1.02283,-5.8596 9.72555,-21.87815 12.51666,-28.60455c2.91247,-6.99511 3.22451,-13.40079 10.60102,-17.23207c5.67757,-2.94714 13.65217,-5.11415 19.9365,-6.4577c3.10316,-0.66744 6.66573,-0.25137 8.44268,-3.30253c1.20486,-1.71627 1.49957,-3.69259 0,-5.14882c-1.29154,-1.04883 -3.64924,-1.36088 -6.70906,-3.73592c-4.81943,-3.7446 -11.77988,-13.73885 -13.67818,-19.59845c-1.73361,-5.32218 -2.09767,-10.9304 -2.51373,-16.46928c-1.15285,-15.40311 10.17629,-31.17895 20.34391,-41.60662c2.47906,-2.53973 4.33402,-4.78477 7.15113,-7.02112c10.18495,-8.07862 18.74898,-12.38663 31.17029,-15.89719l17.33609,-3.69259c6.62238,-2.2797 15.93186,-8.25198 22.53691,-7.72322c9.02344,0.71078 7.88792,6.89109 13.04541,9.56952c3.35453,1.74228 12.73335,2.24502 20.75996,7.80991c15.45513,10.72237 20.74264,28.70856 15.42046,46.42605c-1.52558,5.09681 -3.45855,8.39934 -5.8856,13.00207c13.49615,-7.22048 23.64643,-14.40629 39.87301,-9.97692c3.91796,1.06617 9.07544,3.63191 11.79721,6.66573c2.04566,2.28836 3.45855,5.70357 4.67208,8.51202l13.86887,-11.30313c10.54035,-6.73507 20.64728,-8.65071 32.93857,-8.63338c4.57673,0.00867 8.80674,0.1907 13.00207,2.32304c3.49322,1.78562 5.72958,5.11415 9.53485,4.68941l13.86887,-5.14882c17.76083,-4.86277 46.68609,-12.27395 55.79621,10.27164c1.39556,3.46722 1.39555,5.03613 1.41289,8.66804v5.20083c9.39616,-6.7264 17.29275,-19.58111 23.23036,-29.47135c3.12917,-5.21816 6.94311,-12.16993 14.04224,-11.99657c5.66024,0.13002 11.45916,5.86826 15.60248,9.32681c3.35453,2.79978 8.06128,6.42302 9.83823,10.471c1.61226,3.68392 0.91881,8.70272 -1.0315,12.13527c-1.79429,3.15517 -6.22366,7.1598 -2.29703,10.72237c2.58308,2.38371 14.67499,-0.04334 18.62762,0c13.14943,0.03467 23.75045,10.15028 24.85129,23.08301c0.74545,8.73739 -4.99279,17.62213 -10.98241,23.36905c-13.16676,12.63801 -32.62652,18.99168 -50.27466,22.30288l-38.1394,4.75009l-23.40372,2.50507l-36.40579,5.76425l-24.27052,3.10316l-19.93651,3.70992l-63.27673,11.5285c-20.44792,5.12282 -38.53812,13.23611 -57.20909,22.87497l-16.46929,8.80674c-3.81394,2.15834 -8.51202,5.11415 -13.00206,5.19216l-27.73775,-6.30167l-15.45512,-2.92113l-13.14943,-1.36088l-14.73567,-1.04017h-19.0697c-6.58771,0.00867 -11.83188,2.34904 -17.24074,-2.78244c-2.47906,-2.34904 -3.3372,-4.26468 -3.5279,-7.61921c-0.34672,-6.17165 1.0575,-7.77524 5.16616,-12.13527zM133.06709,121.16046c-4.29935,0.23404 -4.61139,2.14101 -4.33402,6.06763zM115.731,171.43513c-2.91246,4.08265 -4.69808,13.80819 -6.06763,19.06969c8.03528,-2.42705 7.28115,-12.31729 6.06763,-19.06969zM307.29479,204.3737c1.14418,-0.10402 2.3057,-0.13869 3.41521,-0.49408c5.13148,-1.62959 2.23636,-6.08497 -1.43023,-2.68709c-1.14418,1.0575 -1.35222,1.88963 -1.98498,3.18117zM152.13679,219.97618c-4.204,1.43023 -7.35917,3.90929 -9.53485,7.80124l12.13527,-2.60041z" fill="#011878"/><path d="M68.92355,167.96791c-3.17251,2.27103 -7.54987,7.28116 -11.26846,7.44585c-3.86595,0.16469 -6.4837,-2.99048 -8.65938,-5.71224c-5.49554,-6.90843 -9.43084,-13.53082 -9.54352,-22.53692v-6.93443c0.12136,-10.21096 5.07081,-18.97435 11.17311,-26.87094c14.15492,-18.31558 32.07177,-28.27516 54.70403,-31.36098c3.17251,-0.4334 13.64351,-4.81943 17.33609,-6.30167c4.83677,-1.93297 12.44731,-5.68624 14.59699,2.14101c0.16469,1.14418 0.12135,3.09449 0,4.31668c9.58686,0.08668 22.33755,3.56257 29.57537,9.8209c11.39848,9.8469 13.67817,25.9868 8.50335,39.58696c-4.40337,11.55451 -10.57501,14.07691 -18.87033,21.67011c4.68075,3.68392 5.89427,6.67439 7.80124,12.13526l7.09046,-8.66805c6.35368,-7.20315 14.78769,-13.69551 24.1145,-16.43461c2.88646,-0.8408 7.31583,-1.12685 10.40166,-1.32622c11.70186,-0.74545 20.72529,4.8281 21.49675,17.13673c0.30338,4.85411 -0.94482,8.24331 -2.42705,12.75937l12.04858,-15.94054c9.24881,-10.01159 17.99486,-14.83102 31.29164,-17.33609c2.85179,-0.53742 6.7004,-1.32621 9.53485,-1.11818c8.22598,0.6241 14.84836,1.58625 18.20289,10.12428c18.28958,-6.38835 29.84408,-13.24478 50.27466,-13.00207c9.13612,0.11268 18.38493,5.14015 20.46526,14.73567c1.73361,7.98327 -3.63191,17.28409 -4.86277,25.13734c13.91221,-8.82407 25.11999,-21.63544 33.75336,-35.53898c2.86046,-4.60273 7.93126,-16.28726 13.92088,-16.28726c3.75326,0 6.82175,3.1205 9.53485,5.37419c3.5279,2.9298 11.61518,8.59004 11.5025,13.50482c-0.07801,3.26785 -3.09449,5.18349 -4.84544,8.68538c-1.93297,3.88329 -1.07484,13.79086 1.88097,16.67732c2.03699,2.47906 5.20083,0.41607 8.79807,0c5.82493,-1.39556 15.20375,-1.98498 20.8033,0c13.40947,4.74142 15.57648,17.16272 8.32999,28.38785c-4.69808,7.28116 -15.35111,13.82554 -23.06567,17.67415c-11.7452,5.86827 -40.23707,11.16444 -53.74188,12.51665l-14.73568,1.16152l-23.40372,2.70443l-34.52483,5.40886l-6.22366,0.63277l-17.32742,2.99048l-18.2029,2.35771l-10.40166,1.98498l-31.20496,5.10548l-23.40373,5.17482l-10.40165,2.13234l-21.67012,8.11329c-12.1526,4.86277 -24.02782,11.03442 -35.53898,17.25808c-4.59407,2.48773 -13.50482,8.39067 -18.20289,9.08411c-4.35136,0.64144 -21.29739,-3.92662 -26.87094,-5.24417c-8.36467,-1.97631 -35.73834,-5.73825 -44.20702,-5.84226h-20.80331c-4.47271,0.00867 -11.25113,1.93298 -14.21559,-1.93297c-3.97864,-5.18349 1.41289,-8.91075 5.54755,-10.86973c7.91392,-3.73593 21.63545,-7.65388 30.33816,-9.95091l11.26845,-2.21035l22.53692,-4.75009l44.20702,-9.76022l26.00414,-5.03614c4.43804,-0.99683 7.17714,-0.97082 11.26846,-3.16384c-10.43633,-3.99597 -11.51983,-8.54669 -14.73567,-18.20289l-13.86888,12.22195c-7.67989,5.81626 -17.57013,10.26296 -26.87094,12.77669c-11.9619,3.24185 -25.84811,1.82896 -38.1394,2.26236c-5.24416,0.18203 -21.63544,2.86912 -26.87094,4.30802l-13.86887,3.89195l-15.60248,6.4577c-3.83994,1.01416 -7.9746,-0.13002 -8.382,-4.66341c-0.29472,-3.21585 2.81711,-9.16213 4.25601,-12.11793l9.51751,-21.67011c1.90697,-4.04798 2.62642,-7.62788 6.77841,-10.04627c3.10316,-1.80295 14.39762,-5.20083 18.16822,-5.8856c3.44121,-0.63277 7.40251,-0.34672 10.21095,-2.7131c2.40971,-2.02832 3.26785,-5.34818 4.23868,-8.22597zM117.46461,137.62975c1.75961,0.45941 2.42705,0.76279 4.33402,0.54609c7.5412,-0.85814 20.3699,-10.80905 16.69465,-19.52911c-1.93297,-4.5854 -10.62702,-7.87059 -13.4008,-2.59175l-3.45855,9.4395zM85.39284,117.69325c-8.53803,2.91246 -13.70419,11.90122 -6.06764,19.0697c2.51373,-4.89745 5.57356,-13.6175 6.06764,-19.0697zM296.89313,156.69945h-1.73361l-6.93443,24.27052c5.10548,-1.21353 13.85154,-6.92576 13.24478,-13.00206zM331.56532,159.29986l-6.34501,13.00207l-10.50567,15.60249l-28.22315,24.27052l18.20289,-2.34904l16.46929,-1.98498c-0.77146,-3.39787 -2.40972,-6.92577 -2.14101,-10.40165c0.89281,-11.54584 12.03992,-29.14197 12.54266,-38.1394zM101.86213,196.78049c3.7966,0.30338 8.47734,1.71627 12.13526,0c9.25747,-3.61458 11.00842,-19.7198 7.57588,-27.85909c-1.48224,-3.51923 -7.24649,-6.267 -10.60102,-3.64925c-2.40105,1.8723 -5.22683,13.99889 -6.10231,17.43143c-1.16152,4.60273 -2.77377,9.10145 -3.00781,14.07691zM261.35415,167.1011c-5.80759,2.88646 -8.78073,9.58685 -10.40166,15.60248c7.52387,-2.21035 9.76022,-8.44267 10.40166,-15.60248zM222.34795,174.03554l-14.73567,17.33609c8.93676,-2.60908 13.74752,-8.02661 14.73567,-17.33609zM397.44246,174.03554c-3.35453,1.01416 -3.59724,1.21353 -5.20083,4.33402c3.70992,-0.44207 4.54206,-0.51141 5.20083,-4.33402zM445.98351,181.88012h-3.31119l-11.42449,10.35832c6.03296,-1.70761 11.90123,-4.54206 14.73568,-10.35832zM367.1043,203.50689c-3.18117,-6.18032 -7.30716,-4.22134 -11.26846,0zM257.02013,213.90855c-2.87779,0.17336 -2.81712,0.13868 -4.33402,2.60041zM218.88073,213.90855c-4.49872,1.10084 -11.57184,5.28751 -14.73567,8.66805l17.33609,-1.73361z" fill="#ffffff"/><path d="M55.92149,169.70152c-4.30802,-6.21499 -8.91075,-11.34647 -10.67903,-19.0697c-5.2355,-22.78829 19.06103,-49.00046 38.41677,-57.20043c15.91453,-6.73507 18.51495,-4.16933 25.13733,-6.11097c7.67122,-2.25369 13.31412,-6.47503 21.67012,-7.76657l-1.73361,6.93444c12.09193,3.05115 24.32253,0.88414 34.65484,10.48833c17.78683,16.52996 7.46319,46.59074 -17.31875,53.6552v1.73361c15.72384,8.10462 16.96336,26.99229 10.12428,41.60662c-3.20718,6.85643 -10.42766,15.96653 -16.22658,20.8033c-11.85789,9.88157 -28.66522,16.44329 -44.17235,16.46929h-18.20289c-6.84776,0.00867 -5.44353,0.48541 -11.26846,1.45623c-13.06274,2.17568 -17.64814,1.85496 -31.20496,6.40569l-18.2029,6.87376c0.78013,-7.49786 8.07861,-21.23671 11.46782,-28.60455c2.10634,-4.57673 2.82578,-8.09596 7.61921,-10.6877c3.40654,-1.84629 13.28812,-4.11732 17.31876,-4.66341c4.48138,-0.60676 7.46318,-0.13002 10.9304,-3.90062c3.06849,-3.3372 7.02112,-17.90818 8.96276,-23.22169l14.0769,-43.34022c2.16701,-6.76108 6.15431,-15.68916 6.76975,-22.53692c-3.58857,0.17336 -6.241,0.63276 -9.53485,2.20168c-7.02979,3.35453 -17.31875,13.41814 -14.22426,22.10352c1.40422,3.92663 4.48138,7.05579 7.31583,10.00292c1.47357,1.51691 3.34587,3.05115 2.42705,5.4262c-0.58076,1.49957 -4.55939,4.89745 -5.91161,6.14565c-4.65474,4.30802 -12.68135,12.90672 -18.21156,14.79636zM110.53017,144.56419c11.24246,-0.00867 20.43058,-1.95031 28.44852,-10.47967c3.1465,-3.35453 5.28751,-7.37651 5.28751,-12.05725c0,-8.55536 -6.16297,-12.31729 -13.79952,-13.80819c-2.00232,-0.36406 -5.5909,-1.21353 -7.35918,0c-1.62092,1.04883 -2.42705,4.22134 -3.08582,6.00696l-5.15749,14.73568c-1.70761,5.11415 -4.0393,10.18496 -4.33402,15.60249zM350.63502,184.43719c14.32828,-4.52472 33.3893,-22.59759 42.10936,-34.67218l10.99108,-16.46928c1.07484,-1.74228 3.26785,-5.75558 5.2615,-6.32767c3.65792,-1.04017 12.19594,7.56721 15.31644,9.79489c-1.73361,6.38835 -6.61372,9.82089 -5.89427,17.33609l3.70992,13.00207c0.63277,2.97314 0.45074,7.27249 0.45074,10.40166c9.66487,-4.94946 11.24246,-9.3875 23.40373,-9.53485c3.7966,-0.04334 6.84775,-0.28605 10.40165,1.36088c8.77206,4.05665 9.13612,12.99339 4.14333,20.30922c-5.16616,7.54987 -17.35343,14.0509 -25.81344,17.40544c-16.58197,6.56171 -31.31765,7.56721 -48.54105,9.71688l-36.40579,4.32536l-35.53899,5.54755l-23.40372,2.99047l-15.60248,2.9558l-53.98459,9.01477c-29.94809,6.33634 -40.67047,10.63569 -68.23485,23.7331l-20.80331,11.18178c-2.34037,1.23086 -8.07861,4.42937 -10.40165,4.69808l-22.53692,-5.0448c-10.6877,-2.3057 -34.43814,-5.78159 -45.07383,-5.91161h-20.80331c-3.96997,0 -7.1078,0.69344 -10.40165,-1.73361c12.68135,-6.50104 34.30812,-10.97375 48.54105,-13.86887l20.80331,-4.88011l38.1394,-7.49786l81.47962,-15.11707l19.0697,-2.70443l20.8033,-2.12367l63.27673,-7.69722l9.53485,-1.4389l53.74188,-4.62874c15.88853,-1.51691 44.14635,-5.49554 58.0759,-12.43865c5.03614,-2.51373 11.07776,-5.81626 13.99023,-10.81772c3.13783,-5.38286 -0.68478,-9.17946 -6.18899,-9.42216l-7.80124,0.75412c-1.16152,6.88243 -7.22915,9.55219 -13.00207,12.73336c-8.53803,4.69808 -17.21474,9.11011 -26.87094,11.09509l-11.26846,0.79746c-8.58137,0.91881 -17.50945,-2.26236 -19.0697,-11.62385c-10.24563,5.89427 -12.68135,9.48284 -25.13733,15.0824c-3.90062,1.75095 -8.99743,3.46722 -12.90672,0.74545c-3.96997,-2.75644 -3.88328,-7.25515 -2.98181,-11.49383l9.8209,-26.00413c1.21353,-2.85179 5.4522,-11.49383 2.29703,-13.71285c-3.42388,-2.41839 -10.47967,-0.12135 -12.33463,3.3632c-1.14418,2.13234 -3.10316,10.57502 -7.15114,17.28408c-8.88475,14.74435 -20.04052,22.03417 -33.95273,31.20496c-6.267,4.13466 -18.25491,12.71603 -23.67244,2.56574c-0.93615,-1.75961 -1.15285,-3.25919 -1.4649,-5.16616c-2.99048,1.38689 -3.70992,2.2797 -6.14565,4.40337c-7.14247,6.24099 -24.07116,16.77267 -28.95127,2.53107c-0.78879,-2.3317 -1.0575,-3.64058 -1.30888,-6.06763l-13.24478,8.65938c-7.60188,4.55073 -21.20203,10.19362 -30.09545,10.40165c-14.25894,0.32072 -19.16505,-6.38835 -19.42509,-19.92783c-0.28605,-14.95238 8.01794,-34.03074 17.8475,-45.07383c6.81309,-7.64522 17.18007,-13.82553 27.58172,-13.86887c2.34037,-0.00867 5.58222,-0.10402 7.80124,0.48541c8.19997,2.14968 9.93358,10.39298 8.05262,17.71748c-3.08582,12.01391 -16.18324,23.2997 -25.3887,30.96226c-4.06531,3.38054 -7.05579,4.65474 -10.40166,8.91075c10.36698,2.5224 19.9365,-2.77378 28.60455,-7.9746c3.22451,-1.93297 6.80442,-3.82261 9.17079,-6.79575l8.11329,-16.43461c5.73825,-10.80905 13.40946,-20.18788 24.32253,-26.09082c5.40019,-2.92113 14.65767,-4.96678 20.80331,-5.10547c4.25601,-0.09535 10.36698,0.052 13.22744,3.75326c1.56892,2.02832 1.61226,5.05347 1.43023,7.50653l-10.32364,39.87301c15.12574,-4.31669 27.39102,-15.80185 31.20496,-31.20496c-1.31754,0.32939 -3.83994,1.13551 -5.10548,0.89281c-3.54523,-0.69344 -5.44353,-8.21731 -6.16298,-11.29447c10.26297,-5.84226 32.45316,-13.28811 44.20703,-12.68135c9.20547,0.47674 16.99804,3.83127 16.39127,14.41496c-0.6241,10.72237 -8.62471,23.83712 -10.32364,32.93857zM270.0222,157.56625c-12.63801,0.31205 -20.37858,11.53717 -24.18385,22.53692c-0.8148,2.34904 -2.82578,10.32364 -0.96215,12.27395c2.35771,2.45306 8.52068,-2.91246 10.41032,-4.37736c2.53107,-1.95031 5.50421,-4.42937 7.35917,-7.02979c3.18117,-4.43804 6.30167,-17.70881 7.37651,-23.40372zM94.92769,200.03967c9.24013,2.82578 21.25405,5.21816 28.14514,-3.48455c5.49554,-6.94311 7.20315,-26.70624 0.96216,-33.59734c-2.66109,-2.94714 -6.27567,-3.5539 -10.0376,-3.64925c-1.86363,-0.04334 -4.99279,-0.17336 -6.57037,0.87547c-1.8723,1.23953 -2.51373,4.01331 -3.06849,6.0503l-3.93529,13.86888zM183.34175,186.1708c6.78708,-3.49322 12.44732,-9.08411 16.40861,-15.60248c1.17019,-1.91564 3.89195,-6.64839 1.29154,-8.47735c-2.42705,-1.71627 -6.27567,1.22219 -8.00928,2.81712c-4.89745,4.49005 -9.01477,14.70968 -9.69088,21.26272zM400.04287,161.90028l-17.33609,15.60248c3.47589,9.94225 15.98388,7.74923 18.92235,2.50507c2.2797,-4.07398 -0.16469,-13.81687 -1.58625,-18.10755z" fill="#870328"/></g></g></svg>